<svg xmlns="http://www.w3.org/2000/svg" viewBox="0 0 1072 1072">
	<g fill="#ff5e5b">
		<path d="M1464,1000a515,515,0,0,1-4.41,66.71l1.28-9.57a502,502,0,0,1-34.62,127.3l3.63-8.6a504.73,504.73,0,0,1-65,111.35l5.63-7.28a508.39,508.39,0,0,1-90.59,90.59l7.28-5.63a504.73,504.73,0,0,1-111.35,65l8.6-3.63a502,502,0,0,1-127.3,34.62l9.57-1.28a510.21,510.21,0,0,1-133.42,0l9.57,1.28a502,502,0,0,1-127.3-34.62l8.6,3.63a504.73,504.73,0,0,1-111.35-65l7.28,5.63a508.39,508.39,0,0,1-90.59-90.59l5.63,7.28a504.73,504.73,0,0,1-65-111.35l3.63,8.6a502,502,0,0,1-34.62-127.3l1.28,9.57a510.21,510.21,0,0,1,0-133.42l-1.28,9.57a502,502,0,0,1,34.62-127.3l-3.63,8.6a504.73,504.73,0,0,1,65-111.35l-5.63,7.28a508.39,508.39,0,0,1,90.59-90.59l-7.28,5.63a504.73,504.73,0,0,1,111.35-65l-8.6,3.63a502,502,0,0,1,127.3-34.62l-9.57,1.28a510.21,510.21,0,0,1,133.42,0l-9.57-1.28a502,502,0,0,1,127.3,34.62l-8.6-3.63a504.73,504.73,0,0,1,111.35,65l-7.28-5.63a508.39,508.39,0,0,1,90.59,90.59l-5.63-7.28a504.73,504.73,0,0,1,65,111.35l-3.63-8.6a502,502,0,0,1,34.62,127.3l-1.28-9.57A515,515,0,0,1,1464,1000c0,18.83,16.54,36.87,36,36s36-15.82,36-36c-.08-55.42-8.52-111.43-25.65-164.17-16.55-51-40.5-99.86-71.58-143.54a557.67,557.67,0,0,0-116.28-120.13c-42.63-32.66-90.23-57.89-140.61-76.39-51.82-19-107.06-29.25-162.18-31.39a533.2,533.2,0,0,0-312.23,86.46c-44.52,29.28-85.17,64.88-119.06,106A563.88,563.88,0,0,0,540,724.75c-14.59,24.29-26.7,49.77-37.45,76-20.92,51-32.75,105.19-37,160.07a534.52,534.52,0,0,0,177.42,438.88C682.81,1435,727.64,1465,776.25,1487a556.45,556.45,0,0,0,79.53,29.37c28.09,7.84,56.76,12.87,85.71,16.24,55.9,6.52,112.74,3.31,167.85-7.85a534.41,534.41,0,0,0,277.91-154.19c36.66-38.42,68.14-82.48,91.8-130,24.24-48.73,41.65-100.88,49.89-154.72A572.24,572.24,0,0,0,1536,1000c0-18.83-16.58-36.87-36-36S1464,979.82,1464,1000Z" transform="translate(-463.99 -463.99)" />
		<path d="M807.35,1347.71a396.14,396.14,0,0,0,193.6,51c12.55,0,24.58-11.06,24-24s-10.55-24-24-24c-15.93,0-32.51-.36-48.23-3.13,6.6,1.17.54,0-.61-.12q-3-.46-6.09-1-5.61-.94-11.21-2.06-11.52-2.3-22.89-5.34a365.56,365.56,0,0,1-43.22-14.52c-1.06-.42-2.11-.86-3.16-1.3l2.58,1.09a64.07,64.07,0,0,1-6.25-2.75q-4.65-2.1-9.25-4.33c-7.14-3.46-14.15-7.17-21-11.07-10.93-6.17-26.72-3-32.83,8.61-6,11.37-3.07,26.25,8.61,32.84Z" transform="translate(-463.99 -463.99)" />
		<path d="M723.68,729.37c-55.5,55.73-94.41,128.21-108.25,205.78A398.38,398.38,0,0,0,647.77,1177a391.15,391.15,0,0,0,75.91,106.88c8.87,8.91,25.18,9.54,33.94,0s9.47-24.43,0-33.94q-9.81-9.85-18.91-20.38-4-4.68-7.9-9.51c-.65-.8-1.29-1.61-1.93-2.41s-2.5-4.54-1-1.24c1.37,3,.22.27-.47-.64s-1.55-2.07-2.31-3.11a367.19,367.19,0,0,1-29.26-46.63Q689.5,1154,684,1141.42c-.41-1-.8-1.93-1.23-2.88,2.49,5.5,1.11,2.65.6,1.39-.78-1.94-1.57-3.88-2.33-5.83q-2.73-7-5.16-14a367.36,367.36,0,0,1-14-53.89c-.81-4.51-1.52-9-2.18-13.55-.63-4.26.16,1,.2,1.56-.08-1.07-.27-2.16-.4-3.22q-.5-4.05-.88-8.1-1.4-14.33-1.69-28.74t.55-29q.39-7,1.06-13.89.35-3.66.77-7.3c.12-1.08.26-2.15.38-3.23.59-4.9-.79,5.22,0-.05A386.85,386.85,0,0,1,671.76,906q4-13.21,9-26.09c.76-2,1.53-3.9,2.32-5.84l.3-.73c1-2.4.79-1.93-.6,1.39a14,14,0,0,1,1.23-2.88q2.82-6.45,5.87-12.79a367.61,367.61,0,0,1,30.71-52.19q2.24-3.17,4.53-6.28c1-1.43,6.28-8,1.84-2.55,3.24-4,6.41-8.07,9.74-12q10-11.79,20.91-22.73c8.87-8.91,9.56-25.16,0-33.94s-24.48-9.51-33.94,0Z" transform="translate(-463.99 -463.99)" />
	</g>
</svg>
