<?xml version="1.0" encoding="utf-8"?>
<!-- Generator: Adobe Illustrator 24.0.3, SVG Export Plug-In . SVG Version: 6.00 Build 0)  -->
<svg version="1.1" id="Layer_1" xmlns="http://www.w3.org/2000/svg" xmlns:xlink="http://www.w3.org/1999/xlink" x="0px" y="0px"
	 viewBox="0 0 1014 1014" style="enable-background:new 0 0 1014 1014;" xml:space="preserve">
<style type="text/css">
	.st0{fill:#FF5E5B;}
</style>
<g transform="translate(0.000000,1014.000000) scale(0.100000,-0.100000)">
	<path class="st0" d="M4809,10126c-2-2-51-7-109-10c-92-6-211-18-305-30c-16-3-52-8-80-11c-27-4-138-24-245-46
		c-516-102-1052-302-1491-556c-48-27-93-53-100-56c-30-14-217-138-333-220c-432-307-811-676-1130-1102c-213-283-391-582-540-905
		c-145-311-255-631-331-956c-19-82-37-167-41-189c-3-22-7-42-9-45s-6-24-9-46c-4-22-8-51-11-64c-3-14-14-92-24-175
		c-18-134-24-193-37-380c-5-75-5-429,1-520c11-199,29-383,45-470c5-27,11-69,14-92c16-128,97-477,156-668c133-435,341-881,591-1267
		c40-62,76-115,79-118s20-27,39-55c44-64,226-300,267-345c17-19,67-75,111-125c143-160,349-359,508-490c33-28,62-53,65-56
		s59-46,125-96c552-416,1168-712,1831-877c99-25,193-47,209-50c17-3,68-12,115-21c47-8,99-17,115-20c17-2,62-8,100-14
		c39-5,102-13,140-16c39-4,81-8,95-10c152-23,651-23,890-1c83,8,186,19,201,21c9,2,40,6,69,10s60,8,69,10c9,1,36,6,61,9
		c25,4,99,18,165,32c66,13,129,26,140,28c211,43,664,194,900,301c125,57,372,182,458,233c49,28,91,52,93,52c10,0,306,199,410,275
		c457,338,859,756,1177,1221c178,262,372,614,472,859c20,50,43,104,50,120c76,172,208,608,251,830c2,11,6,31,9,45
		c16,76,42,229,50,299c4,30,8,61,10,70c1,9,6,50,9,91c4,41,9,91,11,110c21,173,21,731,1,860c-3,14-7,59-11,100s-8,86-10,100
		s-6,41-9,60c-2,19-8,58-11,85c-6,41-66,351-80,405c-39,163-145,506-188,610c-6,14-11,27-12,30c-26,78-121,289-205,455
		c-197,391-422,723-735,1085c-78,91-413,416-522,507c-272,227-507,389-805,556c-126,70-359,186-436,216c-27,11-69,29-93,39
		c-255,114-781,267-1059,307c-24,4-47,8-50,10c-4,2-35,6-71,10c-35,3-72,8-81,11c-18,5-50,9-168,19c-41,4-91,9-110,12
		C5419,10122,4814,10131,4809,10126z M5336,9116c67-4,133-9,145-11c13-2,45-6,72-9c26-3,68-9,95-12c187-23,542-109,759-185
		c215-76,581-243,675-310c14-11,28-19,31-19c21,0,304-191,441-298c108-83,126-99,236-196c185-166,420-427,563-626c9-14,37-53,62-87
		c180-251,389-667,504-1008c72-215,146-522,165-690c2-16,7-50,10-75c22-146,31-304,30-540c-1-214-7-354-19-420c-2-14-7-52-11-85
		c-3-33-8-69-10-80c-2-10-6-37-9-60c-35-241-152-645-260-900c-59-138-178-378-233-469c-23-37-42-70-42-71c0-14-267-396-290-415
		c-3-3-15-17-26-32c-72-93-203-236-334-364c-508-494-1148-850-1839-1023c-168-42-380-81-521-95c-25-3-76-8-115-13
		c-142-15-691-8-792,11c-10,2-43,7-74,10c-31,4-65,8-75,10c-11,2-41,7-68,10c-27,4-52,9-55,10c-3,2-27,7-52,10
		c-81,11-389,93-529,141c-413,142-798,346-1145,609c-327,248-663,597-888,926c-376,548-621,1187-692,1805c-3,28-8,64-10,80
		c-25,188-25,664,0,840c3,17,7,53,10,80c29,264,110,602,211,880c292,808,844,1513,1560,1993c194,130,481,286,654,356
		c36,15,74,31,85,36c110,52,496,172,662,205c133,27,269,49,374,61c30,3,65,8,79,10s86,7,160,10c74,4,136,8,138,9
		C4972,9128,5212,9122,5336,9116z"/>
	<path class="st0" d="M3445,8398c-84-32-397-246-566-388c-223-187-442-415-652-680c-123-155-312-465-420-690
		c-74-154-190-440-202-500c-1-3-15-50-32-105c-30-96-77-280-87-337c-3-15-11-63-20-105c-15-79-20-108-31-198c-4-27-8-60-10-73
		c-13-79-20-239-20-457c0-280,5-309,70-377c55-60,102-79,191-79c88-1,173,52,217,135c20,38,22,56,23,261c2,262,11,413,34,555
		c5,30,12,73,15,94s7,48,10,60s7,33,10,49c12,64,17,88,46,197c124,482,347,931,658,1325c151,191,360,403,534,543c40,31,74,59,77,63
		c12,13,222,159,300,208c103,65,136,94,162,145c60,117,16,265-97,332C3602,8407,3497,8418,3445,8398z"/>
	<path class="st0" d="M1691,4003c-91-33-161-138-161-241c0-74,135-389,275-641c107-195,164-243,285-244c138-1,246,98,254,232
		c4,63-12,111-73,216c-68,117-166,320-226,467c-50,124-86,172-153,204C1842,4020,1745,4023,1691,4003z"/>
</g>
</svg>
