<?xml version="1.0" standalone="no"?>
<!DOCTYPE svg PUBLIC "-//W3C//DTD SVG 20010904//EN"
 "http://www.w3.org/TR/2001/REC-SVG-20010904/DTD/svg10.dtd">
<svg version="1.0" xmlns="http://www.w3.org/2000/svg"
 width="1014.000000pt" height="1014.000000pt" viewBox="0 0 1014.000000 1014.000000"
 preserveAspectRatio="xMidYMid meet">
<metadata>
Created by potrace 1.11, written by Peter Selinger 2001-2013
</metadata>
<g transform="translate(0.000000,1014.000000) scale(0.100000,-0.100000)"
fill="#000000" stroke="none">
<path d="M4809 10126 c-2 -2 -51 -7 -109 -10 -92 -6 -211 -18 -305 -30 -16 -3
-52 -8 -80 -11 -27 -4 -138 -24 -245 -46 -516 -102 -1052 -302 -1491 -556 -48
-27 -93 -53 -100 -56 -30 -14 -217 -138 -333 -220 -432 -307 -811 -676 -1130
-1102 -213 -283 -391 -582 -540 -905 -145 -311 -255 -631 -331 -956 -19 -82
-37 -167 -41 -189 -3 -22 -7 -42 -9 -45 -2 -3 -6 -24 -9 -46 -4 -22 -8 -51
-11 -64 -3 -14 -14 -92 -24 -175 -18 -134 -24 -193 -37 -380 -5 -75 -5 -429 1
-520 11 -199 29 -383 45 -470 5 -27 11 -69 14 -92 16 -128 97 -477 156 -668
133 -435 341 -881 591 -1267 40 -62 76 -115 79 -118 3 -3 20 -27 39 -55 44
-64 226 -300 267 -345 17 -19 67 -75 111 -125 143 -160 349 -359 508 -490 33
-28 62 -53 65 -56 3 -3 59 -46 125 -96 552 -416 1168 -712 1831 -877 99 -25
193 -47 209 -50 17 -3 68 -12 115 -21 47 -8 99 -17 115 -20 17 -2 62 -8 100
-14 39 -5 102 -13 140 -16 39 -4 81 -8 95 -10 152 -23 651 -23 890 -1 83 8
186 19 201 21 9 2 40 6 69 10 29 4 60 8 69 10 9 1 36 6 61 9 25 4 99 18 165
32 66 13 129 26 140 28 211 43 664 194 900 301 125 57 372 182 458 233 49 28
91 52 93 52 10 0 306 199 410 275 457 338 859 756 1177 1221 178 262 372 614
472 859 20 50 43 104 50 120 76 172 208 608 251 830 2 11 6 31 9 45 16 76 42
229 50 299 4 30 8 61 10 70 1 9 6 50 9 91 4 41 9 91 11 110 21 173 21 731 1
860 -3 14 -7 59 -11 100 -4 41 -8 86 -10 100 -2 14 -6 41 -9 60 -2 19 -8 58
-11 85 -6 41 -66 351 -80 405 -39 163 -145 506 -188 610 -6 14 -11 27 -12 30
-26 78 -121 289 -205 455 -197 391 -422 723 -735 1085 -78 91 -413 416 -522
507 -272 227 -507 389 -805 556 -126 70 -359 186 -436 216 -27 11 -69 29 -93
39 -255 114 -781 267 -1059 307 -24 4 -47 8 -50 10 -4 2 -35 6 -71 10 -35 3
-72 8 -81 11 -18 5 -50 9 -168 19 -41 4 -91 9 -110 12 -41 5 -646 14 -651 9z
m527 -1010 c67 -4 133 -9 145 -11 13 -2 45 -6 72 -9 26 -3 68 -9 95 -12 187
-23 542 -109 759 -185 215 -76 581 -243 675 -310 14 -11 28 -19 31 -19 21 0
304 -191 441 -298 108 -83 126 -99 236 -196 185 -166 420 -427 563 -626 9 -14
37 -53 62 -87 180 -251 389 -667 504 -1008 72 -215 146 -522 165 -690 2 -16 7
-50 10 -75 22 -146 31 -304 30 -540 -1 -214 -7 -354 -19 -420 -2 -14 -7 -52
-11 -85 -3 -33 -8 -69 -10 -80 -2 -10 -6 -37 -9 -60 -35 -241 -152 -645 -260
-900 -59 -138 -178 -378 -233 -469 -23 -37 -42 -70 -42 -71 0 -14 -267 -396
-290 -415 -3 -3 -15 -17 -26 -32 -72 -93 -203 -236 -334 -364 -508 -494 -1148
-850 -1839 -1023 -168 -42 -380 -81 -521 -95 -25 -3 -76 -8 -115 -13 -142 -15
-691 -8 -792 11 -10 2 -43 7 -74 10 -31 4 -65 8 -75 10 -11 2 -41 7 -68 10
-27 4 -52 9 -55 10 -3 2 -27 7 -52 10 -81 11 -389 93 -529 141 -413 142 -798
346 -1145 609 -327 248 -663 597 -888 926 -376 548 -621 1187 -692 1805 -3 28
-8 64 -10 80 -25 188 -25 664 0 840 3 17 7 53 10 80 29 264 110 602 211 880
292 808 844 1513 1560 1993 194 130 481 286 654 356 36 15 74 31 85 36 110 52
496 172 662 205 133 27 269 49 374 61 30 3 65 8 79 10 14 2 86 7 160 10 74 4
136 8 138 9 4 3 244 -3 368 -9z"/>
<path d="M3445 8398 c-84 -32 -397 -246 -566 -388 -223 -187 -442 -415 -652
-680 -123 -155 -312 -465 -420 -690 -74 -154 -190 -440 -202 -500 -1 -3 -15
-50 -32 -105 -30 -96 -77 -280 -87 -337 -3 -15 -11 -63 -20 -105 -15 -79 -20
-108 -31 -198 -4 -27 -8 -60 -10 -73 -13 -79 -20 -239 -20 -457 0 -280 5 -309
70 -377 55 -60 102 -79 191 -79 88 -1 173 52 217 135 20 38 22 56 23 261 2
262 11 413 34 555 5 30 12 73 15 94 3 21 7 48 10 60 3 12 7 33 10 49 12 64 17
88 46 197 124 482 347 931 658 1325 151 191 360 403 534 543 40 31 74 59 77
63 12 13 222 159 300 208 103 65 136 94 162 145 60 117 16 265 -97 332 -53 31
-158 42 -210 22z"/>
<path d="M1691 4003 c-91 -33 -161 -138 -161 -241 0 -74 135 -389 275 -641
107 -195 164 -243 285 -244 138 -1 246 98 254 232 4 63 -12 111 -73 216 -68
117 -166 320 -226 467 -50 124 -86 172 -153 204 -50 24 -147 27 -201 7z"/>
</g>
</svg>
